# xmcd
# 
# Track frame offsets:
#     150
#     19800
#     35850
#     49050
#     61500
#     73200
#     86550
#     101175
#     113175
#     126375
#     143325
#     157725
#     170625
#     185325
#     197850
#     210900
# 
# Disc length: 2991
# 
# Revision: 0
# Processed by: cddbd v1.5.2PL0 Copyright (c) Steve Scherf et al.
# Submitted via: fre:ac v1.0.31
# 
DISCID=df0bad10
DTITLE=Various Artist - Oldies Party Pack 2
DYEAR=0
DGENRE=Oldies
TTITLE0=The Isley Brothers - Shout
TTITLE1=Ben E. King - Standy By Me
TTITLE2=The Shirelles - Will You Still Love Me Tommorrow
TTITLE3=Elvis Presley - Heartbreak Hotel
TTITLE4=Ritchie Valens - La Bamba
TTITLE5=Little Eva - Loco-Motion
TTITLE6=Bobby Vinton - Blue Velvet
TTITLE7=The Chiffons - One Fine Day
TTITLE8=Bill Haley and His Comets - Shake, Rattle and Roll
TTITLE9=The Platters - The Great Pretender
TTITLE10=The Shirelles - Soldier Boy
TTITLE11=Sam the Shamd and The Pharaohs - Wolly Bully
TTITLE12=The Supremes - Where Did Our Love Go
TTITLE13=Buddy Holly and The Crickets - That'll Be the Day
TTITLE14=Shelly Fabares - Johnny Angel
TTITLE15=Little Richard - Tutti Frutti
EXTD=
EXTT0=
EXTT1=
EXTT2=
EXTT3=
EXTT4=
EXTT5=
EXTT6=
EXTT7=
EXTT8=
EXTT9=
EXTT10=
EXTT11=
EXTT12=
EXTT13=
EXTT14=
EXTT15=
PLAYORDER=
